<svg id="ico_search" xmlns="http://www.w3.org/2000/svg" width="24" height="24" viewBox="0 0 24 24">
  <metadata><?xpacket begin="﻿" id="W5M0MpCehiHzreSzNTczkc9d"?>
<x:xmpmeta xmlns:x="adobe:ns:meta/" x:xmptk="Adobe XMP Core 5.6-c142 79.160924, 2017/07/13-01:06:39        ">
   <rdf:RDF xmlns:rdf="http://www.w3.org/1999/02/22-rdf-syntax-ns#">
      <rdf:Description rdf:about=""/>
   </rdf:RDF>
</x:xmpmeta>
                                                                                                    
                                                                                                    
                                                                                                    
                                                                                                    
                                                                                                    
                                                                                                    
                                                                                                    
                                                                                                    
                                                                                                    
                                                                                                    
                                                                                                    
                                                                                                    
                                                                                                    
                                                                                                    
                                                                                                    
                                                                                                    
                                                                                                    
                                                                                                    
                                                                                                    
                                                                                                    
                           
<?xpacket end="w"?></metadata>
<defs>
    <style>
      .cls-1 {
        fill: #fff;
        fill-rule: evenodd;
      }
    </style>
  </defs>
  <path id="Path_550" data-name="Path 550" class="cls-1" d="M1783.45,77.8l-6.26-6.257a9.289,9.289,0,0,0,1.56-5.168,9.375,9.375,0,1,0-9.38,9.375,9.272,9.272,0,0,0,5.17-1.556l1.73,1.729h0l4.53,4.526a1.872,1.872,0,0,0,2.65,0A1.873,1.873,0,0,0,1783.45,77.8Zm-9.13-4.593h0a8.435,8.435,0,1,1-4.95-15.269A8.431,8.431,0,0,1,1774.32,73.206Zm0.99,0.425a9.811,9.811,0,0,0,1.32-1.325l1.33,1.33a10.9,10.9,0,0,1-1.33,1.325Zm7.48,6.157a0.943,0.943,0,0,1-1.33,0l-4.16-4.162a12.013,12.013,0,0,0,1.32-1.325l4.17,4.162A0.948,0.948,0,0,1,1782.79,79.788Z" transform="translate(-1760 -57)"/>
  <path id="Path_551" data-name="Path 551" class="cls-1" d="M1769.37,58.875a7.5,7.5,0,1,0,7.5,7.5A7.512,7.512,0,0,0,1769.37,58.875Zm0,14.063a6.563,6.563,0,1,1,6.57-6.562A6.573,6.573,0,0,1,1769.37,72.938Z" transform="translate(-1760 -57)"/>
</svg>
